<svg xmlns="http://www.w3.org/2000/svg" width="900" height="1000" viewBox="0 0 900 1000">
<defs>
<linearGradient id="vg" x1="0" y1="0" x2="0" y2="1">
<stop offset="0" stop-color="#000" stop-opacity="0"/>
<stop offset="0.55" stop-color="#000" stop-opacity="0"/>
<stop offset="1" stop-color="#0d0f12" stop-opacity="0.78"/>
</linearGradient>
<linearGradient id="abg" x1="0" y1="0" x2="1" y2="1"><stop offset="0" stop-color="#2c343c"/><stop offset="1" stop-color="#15191d"/></linearGradient>
<pattern id="ht60" width="32" height="32" patternUnits="userSpaceOnUse"><circle cx="16.0" cy="16.0" r="9.00" fill="#000"/></pattern><linearGradient id="htm60" x1="0" y1="0" x2="0" y2="1"><stop offset="0" stop-color="#fff" stop-opacity="0"/><stop offset="1" stop-color="#fff" stop-opacity="0.2"/></linearGradient><mask id="htm60mask"><rect width="900" height="1000" fill="url(#htm60)"/></mask>
</defs>
<rect width="900" height="1000" fill="url(#abg)"/><g><path d="M-550 0 L-498 0 L52 1000 L0 1000Z" fill="#000" opacity="0.135"/><path d="M-312 0 L-234 0 L316 1000 L238 1000Z" fill="#000" opacity="0.118"/><path d="M-75 0 L-20 0 L530 1000 L475 1000Z" fill="#000" opacity="0.143"/><path d="M162 0 L251 0 L801 1000 L712 1000Z" fill="#000" opacity="0.121"/><path d="M400 0 L472 0 L1022 1000 L950 1000Z" fill="#000" opacity="0.099"/><path d="M638 0 L680 0 L1230 1000 L1188 1000Z" fill="#000" opacity="0.110"/><path d="M875 0 L951 0 L1501 1000 L1425 1000Z" fill="#000" opacity="0.086"/><path d="M1112 0 L1200 0 L1750 1000 L1662 1000Z" fill="#000" opacity="0.099"/></g><rect x="90" y="120" width="720" height="760" fill="none" stroke="#e8a13a" stroke-width="2" opacity="0.35"/><rect x="150" y="640" width="86" height="120" fill="#3d4853" opacity="0.95"/><rect x="150" y="640" width="86" height="120" fill="none" stroke="#000" stroke-width="2" opacity="0.35"/><rect x="260" y="560" width="86" height="200" fill="#2f4438" opacity="0.95"/><rect x="260" y="560" width="86" height="200" fill="none" stroke="#000" stroke-width="2" opacity="0.35"/><rect x="370" y="480" width="86" height="280" fill="#3d4853" opacity="0.95"/><rect x="370" y="480" width="86" height="280" fill="none" stroke="#000" stroke-width="2" opacity="0.35"/><rect x="480" y="400" width="86" height="360" fill="#2f4438" opacity="0.95"/><rect x="480" y="400" width="86" height="360" fill="none" stroke="#000" stroke-width="2" opacity="0.35"/><rect x="590" y="320" width="86" height="440" fill="#3d4853" opacity="0.95"/><rect x="590" y="320" width="86" height="440" fill="none" stroke="#000" stroke-width="2" opacity="0.35"/><rect x="700" y="240" width="86" height="520" fill="#2f4438" opacity="0.95"/><rect x="700" y="240" width="86" height="520" fill="none" stroke="#000" stroke-width="2" opacity="0.35"/><rect x="90" y="760" width="720" height="16" fill="#0a0b0c"/><polyline points="150,720 260,650 370,560 480,500 590,420 700,330" fill="none" stroke="#e8a13a" stroke-width="4" opacity="0.8"/><circle cx="150" cy="720" r="7" fill="#e8a13a"/><circle cx="260" cy="650" r="7" fill="#e8a13a"/><circle cx="370" cy="560" r="7" fill="#e8a13a"/><circle cx="480" cy="500" r="7" fill="#e8a13a"/><circle cx="590" cy="420" r="7" fill="#e8a13a"/><circle cx="700" cy="330" r="7" fill="#e8a13a"/><g><g style="mix-blend-mode:multiply"><rect width="900" height="1000" fill="url(#ht60)" mask="url(#htm60mask)"/></g></g>
<rect width="900" height="1000" fill="url(#vg)"/>
<circle cx="417" cy="373" r="0.5" fill="#fff" opacity="0.06"/><circle cx="6" cy="503" r="1.2" fill="#fff" opacity="0.02"/><circle cx="499" cy="617" r="0.4" fill="#fff" opacity="0.04"/><circle cx="633" cy="452" r="1.0" fill="#fff" opacity="0.02"/><circle cx="214" cy="111" r="0.8" fill="#fff" opacity="0.07"/><circle cx="531" cy="774" r="0.7" fill="#fff" opacity="0.06"/><circle cx="92" cy="291" r="1.0" fill="#fff" opacity="0.05"/><circle cx="380" cy="88" r="0.6" fill="#fff" opacity="0.03"/><circle cx="253" cy="810" r="0.5" fill="#fff" opacity="0.06"/><circle cx="791" cy="55" r="0.7" fill="#fff" opacity="0.04"/><circle cx="21" cy="425" r="1.2" fill="#fff" opacity="0.02"/><circle cx="537" cy="121" r="0.9" fill="#fff" opacity="0.06"/><circle cx="183" cy="8" r="0.4" fill="#fff" opacity="0.04"/><circle cx="16" cy="85" r="0.8" fill="#fff" opacity="0.07"/><circle cx="378" cy="398" r="1.0" fill="#fff" opacity="0.02"/><circle cx="522" cy="173" r="0.9" fill="#fff" opacity="0.07"/><circle cx="49" cy="555" r="0.9" fill="#fff" opacity="0.02"/><circle cx="241" cy="995" r="1.3" fill="#fff" opacity="0.02"/><circle cx="635" cy="951" r="0.6" fill="#fff" opacity="0.05"/><circle cx="39" cy="366" r="1.0" fill="#fff" opacity="0.05"/><circle cx="697" cy="87" r="0.7" fill="#fff" opacity="0.06"/><circle cx="526" cy="451" r="0.7" fill="#fff" opacity="0.07"/><circle cx="517" cy="18" r="1.1" fill="#fff" opacity="0.03"/><circle cx="390" cy="213" r="0.8" fill="#fff" opacity="0.03"/><circle cx="80" cy="630" r="0.4" fill="#fff" opacity="0.06"/><circle cx="23" cy="781" r="1.1" fill="#fff" opacity="0.04"/><circle cx="639" cy="248" r="1.1" fill="#fff" opacity="0.04"/><circle cx="208" cy="964" r="0.7" fill="#fff" opacity="0.04"/><circle cx="774" cy="369" r="1.0" fill="#fff" opacity="0.02"/><circle cx="759" cy="259" r="0.4" fill="#fff" opacity="0.07"/><circle cx="155" cy="947" r="1.3" fill="#fff" opacity="0.05"/><circle cx="11" cy="61" r="0.5" fill="#fff" opacity="0.04"/><circle cx="550" cy="966" r="0.7" fill="#fff" opacity="0.02"/><circle cx="506" cy="137" r="0.4" fill="#fff" opacity="0.05"/><circle cx="626" cy="66" r="0.8" fill="#fff" opacity="0.05"/><circle cx="688" cy="383" r="1.2" fill="#fff" opacity="0.02"/><circle cx="644" cy="772" r="1.2" fill="#fff" opacity="0.04"/><circle cx="89" cy="48" r="0.9" fill="#fff" opacity="0.02"/><circle cx="567" cy="84" r="1.1" fill="#fff" opacity="0.03"/><circle cx="12" cy="176" r="0.8" fill="#fff" opacity="0.05"/><circle cx="349" cy="173" r="0.8" fill="#fff" opacity="0.07"/><circle cx="482" cy="941" r="0.4" fill="#fff" opacity="0.07"/><circle cx="800" cy="544" r="0.8" fill="#fff" opacity="0.04"/><circle cx="819" cy="66" r="1.0" fill="#fff" opacity="0.04"/><circle cx="270" cy="725" r="1.0" fill="#fff" opacity="0.02"/><circle cx="630" cy="454" r="0.8" fill="#fff" opacity="0.05"/><circle cx="48" cy="603" r="0.7" fill="#fff" opacity="0.06"/><circle cx="208" cy="823" r="1.0" fill="#fff" opacity="0.05"/><circle cx="788" cy="36" r="0.9" fill="#fff" opacity="0.05"/><circle cx="610" cy="407" r="0.4" fill="#fff" opacity="0.03"/><circle cx="547" cy="181" r="0.4" fill="#fff" opacity="0.03"/><circle cx="423" cy="536" r="0.4" fill="#fff" opacity="0.06"/><circle cx="300" cy="783" r="0.4" fill="#fff" opacity="0.07"/><circle cx="531" cy="976" r="1.3" fill="#fff" opacity="0.06"/><circle cx="96" cy="349" r="0.6" fill="#fff" opacity="0.06"/><circle cx="173" cy="221" r="0.5" fill="#fff" opacity="0.02"/><circle cx="844" cy="976" r="0.7" fill="#fff" opacity="0.06"/><circle cx="421" cy="522" r="0.7" fill="#fff" opacity="0.05"/><circle cx="213" cy="256" r="0.8" fill="#fff" opacity="0.03"/><circle cx="395" cy="944" r="0.4" fill="#fff" opacity="0.02"/><circle cx="720" cy="58" r="0.6" fill="#fff" opacity="0.06"/><circle cx="545" cy="221" r="0.4" fill="#fff" opacity="0.03"/><circle cx="270" cy="800" r="1.3" fill="#fff" opacity="0.06"/><circle cx="812" cy="931" r="1.2" fill="#fff" opacity="0.07"/><circle cx="871" cy="94" r="0.7" fill="#fff" opacity="0.03"/><circle cx="544" cy="492" r="0.7" fill="#fff" opacity="0.06"/><circle cx="359" cy="209" r="0.6" fill="#fff" opacity="0.04"/><circle cx="549" cy="568" r="0.8" fill="#fff" opacity="0.03"/><circle cx="362" cy="325" r="0.5" fill="#fff" opacity="0.04"/><circle cx="170" cy="712" r="1.0" fill="#fff" opacity="0.02"/><circle cx="563" cy="338" r="0.8" fill="#fff" opacity="0.05"/><circle cx="685" cy="884" r="1.0" fill="#fff" opacity="0.03"/><circle cx="488" cy="335" r="0.4" fill="#fff" opacity="0.05"/><circle cx="424" cy="867" r="0.7" fill="#fff" opacity="0.06"/><circle cx="463" cy="99" r="1.0" fill="#fff" opacity="0.03"/><circle cx="480" cy="71" r="0.4" fill="#fff" opacity="0.07"/><circle cx="38" cy="149" r="0.5" fill="#fff" opacity="0.02"/><circle cx="742" cy="995" r="1.0" fill="#fff" opacity="0.04"/><circle cx="800" cy="506" r="0.5" fill="#fff" opacity="0.05"/><circle cx="323" cy="270" r="0.7" fill="#fff" opacity="0.04"/><circle cx="164" cy="613" r="1.2" fill="#fff" opacity="0.05"/><circle cx="9" cy="684" r="0.4" fill="#fff" opacity="0.04"/><circle cx="779" cy="677" r="1.2" fill="#fff" opacity="0.06"/><circle cx="246" cy="144" r="0.8" fill="#fff" opacity="0.05"/><circle cx="209" cy="331" r="1.1" fill="#fff" opacity="0.03"/><circle cx="541" cy="545" r="1.2" fill="#fff" opacity="0.02"/><circle cx="168" cy="779" r="1.0" fill="#fff" opacity="0.02"/><circle cx="121" cy="211" r="0.9" fill="#fff" opacity="0.06"/><circle cx="195" cy="203" r="1.0" fill="#fff" opacity="0.04"/><circle cx="762" cy="999" r="1.2" fill="#fff" opacity="0.05"/><circle cx="447" cy="61" r="1.1" fill="#fff" opacity="0.04"/><circle cx="417" cy="632" r="1.3" fill="#fff" opacity="0.05"/><circle cx="826" cy="964" r="0.4" fill="#fff" opacity="0.03"/><circle cx="800" cy="767" r="1.3" fill="#fff" opacity="0.03"/><circle cx="478" cy="933" r="0.9" fill="#fff" opacity="0.05"/><circle cx="877" cy="173" r="0.4" fill="#fff" opacity="0.06"/><circle cx="523" cy="200" r="1.1" fill="#fff" opacity="0.03"/><circle cx="117" cy="298" r="0.4" fill="#fff" opacity="0.04"/><circle cx="702" cy="454" r="1.3" fill="#fff" opacity="0.02"/><circle cx="156" cy="144" r="0.9" fill="#fff" opacity="0.03"/>
</svg>