<svg xmlns="http://www.w3.org/2000/svg" width="800" height="600" viewBox="0 0 800 600">
<defs>
<linearGradient id="vg" x1="0" y1="0" x2="0" y2="1">
<stop offset="0" stop-color="#000" stop-opacity="0"/>
<stop offset="0.55" stop-color="#000" stop-opacity="0"/>
<stop offset="1" stop-color="#0d0f12" stop-opacity="0.78"/>
</linearGradient>
<linearGradient id="bg103" x1="0" y1="0" x2="1" y2="1"><stop offset="0" stop-color="#2b333a"/><stop offset="1" stop-color="#1c2126"/></linearGradient>
<pattern id="ht143" width="30" height="30" patternUnits="userSpaceOnUse"><circle cx="15.0" cy="15.0" r="8.00" fill="#000"/></pattern><linearGradient id="htm143" x1="0" y1="0" x2="0" y2="1"><stop offset="0" stop-color="#fff" stop-opacity="0"/><stop offset="1" stop-color="#fff" stop-opacity="0.22"/></linearGradient><mask id="htm143mask"><rect width="800" height="600" fill="url(#htm143)"/></mask>
</defs>
<rect width="800" height="600" fill="url(#bg103)"/><g><path d="M-330 0 L-247 0 L83 600 L0 600Z" fill="#000" opacity="0.131"/><path d="M-130 0 L-59 0 L271 600 L200 600Z" fill="#000" opacity="0.156"/><path d="M70 0 L116 0 L446 600 L400 600Z" fill="#000" opacity="0.097"/><path d="M270 0 L335 0 L665 600 L600 600Z" fill="#000" opacity="0.101"/><path d="M470 0 L524 0 L854 600 L800 600Z" fill="#000" opacity="0.170"/><path d="M670 0 L748 0 L1078 600 L1000 600Z" fill="#000" opacity="0.101"/><path d="M870 0 L910 0 L1240 600 L1200 600Z" fill="#000" opacity="0.110"/></g><polygon points="550,300 513,330 530,375 483,383 475,430 430,413 400,450 370,413 325,430 317,383 270,375 287,330 250,300 287,270 270,225 317,217 325,170 370,187 400,150 430,187 475,170 483,217 530,225 513,270" fill="#0d0f11" opacity="0.9"/><circle cx="400" cy="300" r="58" fill="#1c2126"/><circle cx="400" cy="300" r="58" fill="none" stroke="#e8a13a" stroke-width="4" opacity="0.6"/><circle cx="400" cy="300" r="20" fill="#e8a13a" opacity="0.55"/><rect x="120" y="470" width="560" height="16" fill="#e8a13a" opacity="0.5"/><rect x="150" y="430" width="120" height="40" fill="#2f4438"/><rect x="530" y="430" width="120" height="40" fill="#2f4438"/><g><g style="mix-blend-mode:multiply"><rect width="800" height="600" fill="url(#ht143)" mask="url(#htm143mask)"/></g></g>
<rect width="800" height="600" fill="url(#vg)"/>
<circle cx="783" cy="274" r="1.0" fill="#fff" opacity="0.06"/><circle cx="172" cy="47" r="0.9" fill="#fff" opacity="0.02"/><circle cx="306" cy="534" r="1.2" fill="#fff" opacity="0.02"/><circle cx="66" cy="133" r="1.1" fill="#fff" opacity="0.02"/><circle cx="180" cy="64" r="0.5" fill="#fff" opacity="0.04"/><circle cx="147" cy="246" r="1.0" fill="#fff" opacity="0.05"/><circle cx="332" cy="472" r="0.9" fill="#fff" opacity="0.06"/><circle cx="199" cy="221" r="0.9" fill="#fff" opacity="0.07"/><circle cx="495" cy="285" r="0.6" fill="#fff" opacity="0.03"/><circle cx="173" cy="592" r="1.2" fill="#fff" opacity="0.06"/><circle cx="423" cy="425" r="0.6" fill="#fff" opacity="0.04"/><circle cx="116" cy="252" r="0.6" fill="#fff" opacity="0.02"/><circle cx="736" cy="58" r="1.1" fill="#fff" opacity="0.05"/><circle cx="72" cy="291" r="1.3" fill="#fff" opacity="0.07"/><circle cx="451" cy="463" r="1.0" fill="#fff" opacity="0.03"/><circle cx="440" cy="358" r="0.7" fill="#fff" opacity="0.06"/><circle cx="355" cy="450" r="0.4" fill="#fff" opacity="0.04"/><circle cx="36" cy="388" r="1.2" fill="#fff" opacity="0.04"/><circle cx="452" cy="373" r="0.6" fill="#fff" opacity="0.04"/><circle cx="463" cy="388" r="0.7" fill="#fff" opacity="0.04"/><circle cx="265" cy="333" r="1.0" fill="#fff" opacity="0.03"/><circle cx="548" cy="509" r="0.9" fill="#fff" opacity="0.07"/><circle cx="248" cy="552" r="0.5" fill="#fff" opacity="0.03"/><circle cx="653" cy="20" r="0.9" fill="#fff" opacity="0.06"/><circle cx="755" cy="409" r="0.7" fill="#fff" opacity="0.03"/><circle cx="505" cy="40" r="0.4" fill="#fff" opacity="0.06"/><circle cx="502" cy="98" r="0.8" fill="#fff" opacity="0.03"/><circle cx="695" cy="172" r="1.0" fill="#fff" opacity="0.06"/><circle cx="255" cy="151" r="0.8" fill="#fff" opacity="0.04"/><circle cx="475" cy="197" r="1.1" fill="#fff" opacity="0.04"/><circle cx="109" cy="465" r="1.2" fill="#fff" opacity="0.05"/><circle cx="437" cy="523" r="1.2" fill="#fff" opacity="0.02"/><circle cx="390" cy="11" r="0.7" fill="#fff" opacity="0.03"/><circle cx="369" cy="406" r="1.2" fill="#fff" opacity="0.03"/><circle cx="9" cy="599" r="1.1" fill="#fff" opacity="0.05"/><circle cx="90" cy="31" r="1.2" fill="#fff" opacity="0.04"/><circle cx="688" cy="470" r="1.1" fill="#fff" opacity="0.06"/><circle cx="203" cy="148" r="0.8" fill="#fff" opacity="0.06"/><circle cx="635" cy="454" r="0.9" fill="#fff" opacity="0.04"/><circle cx="155" cy="400" r="1.0" fill="#fff" opacity="0.04"/><circle cx="581" cy="588" r="1.2" fill="#fff" opacity="0.02"/><circle cx="230" cy="368" r="1.0" fill="#fff" opacity="0.03"/><circle cx="745" cy="277" r="1.1" fill="#fff" opacity="0.02"/><circle cx="223" cy="13" r="1.1" fill="#fff" opacity="0.04"/><circle cx="762" cy="364" r="0.7" fill="#fff" opacity="0.03"/><circle cx="300" cy="119" r="0.5" fill="#fff" opacity="0.05"/><circle cx="251" cy="272" r="1.0" fill="#fff" opacity="0.03"/><circle cx="352" cy="194" r="0.7" fill="#fff" opacity="0.05"/><circle cx="79" cy="240" r="0.5" fill="#fff" opacity="0.05"/><circle cx="238" cy="579" r="0.8" fill="#fff" opacity="0.05"/><circle cx="419" cy="492" r="1.0" fill="#fff" opacity="0.05"/><circle cx="26" cy="85" r="1.1" fill="#fff" opacity="0.04"/><circle cx="781" cy="381" r="1.1" fill="#fff" opacity="0.06"/>
</svg>