<svg xmlns="http://www.w3.org/2000/svg" width="800" height="600" viewBox="0 0 800 600">
<defs>
<linearGradient id="vg" x1="0" y1="0" x2="0" y2="1">
<stop offset="0" stop-color="#000" stop-opacity="0"/>
<stop offset="0.55" stop-color="#000" stop-opacity="0"/>
<stop offset="1" stop-color="#0d0f12" stop-opacity="0.78"/>
</linearGradient>
<linearGradient id="bg102" x1="0" y1="0" x2="1" y2="1"><stop offset="0" stop-color="#2b333a"/><stop offset="1" stop-color="#1c2126"/></linearGradient>
<pattern id="ht142" width="30" height="30" patternUnits="userSpaceOnUse"><circle cx="15.0" cy="15.0" r="8.00" fill="#000"/></pattern><linearGradient id="htm142" x1="0" y1="0" x2="0" y2="1"><stop offset="0" stop-color="#fff" stop-opacity="0"/><stop offset="1" stop-color="#fff" stop-opacity="0.22"/></linearGradient><mask id="htm142mask"><rect width="800" height="600" fill="url(#htm142)"/></mask>
</defs>
<rect width="800" height="600" fill="url(#bg102)"/><g><path d="M-330 0 L-287 0 L43 600 L0 600Z" fill="#000" opacity="0.145"/><path d="M-130 0 L-86 0 L244 600 L200 600Z" fill="#000" opacity="0.154"/><path d="M70 0 L135 0 L465 600 L400 600Z" fill="#000" opacity="0.125"/><path d="M270 0 L336 0 L666 600 L600 600Z" fill="#000" opacity="0.141"/><path d="M470 0 L508 0 L838 600 L800 600Z" fill="#000" opacity="0.138"/><path d="M670 0 L736 0 L1066 600 L1000 600Z" fill="#000" opacity="0.137"/><path d="M870 0 L948 0 L1278 600 L1200 600Z" fill="#000" opacity="0.156"/></g><line x1="120" y1="180" x2="120" y2="500" stroke="#0d0f11" stroke-width="9" opacity="0.85"/><line x1="210" y1="180" x2="210" y2="500" stroke="#0d0f11" stroke-width="9" opacity="0.85"/><line x1="300" y1="180" x2="300" y2="500" stroke="#0d0f11" stroke-width="9" opacity="0.85"/><line x1="390" y1="180" x2="390" y2="500" stroke="#0d0f11" stroke-width="9" opacity="0.85"/><line x1="480" y1="180" x2="480" y2="500" stroke="#0d0f11" stroke-width="9" opacity="0.85"/><line x1="120" y1="200" x2="480" y2="200" stroke="#0d0f11" stroke-width="9" opacity="0.85"/><line x1="120" y1="295" x2="480" y2="295" stroke="#0d0f11" stroke-width="9" opacity="0.85"/><line x1="120" y1="390" x2="480" y2="390" stroke="#0d0f11" stroke-width="9" opacity="0.85"/><line x1="120" y1="485" x2="480" y2="485" stroke="#0d0f11" stroke-width="9" opacity="0.85"/><rect x="560" y="120" width="22" height="380" fill="#e8a13a"/><path d="M571 120 L760 120 L760 150 L571 165Z" fill="#e8a13a"/><line x1="640" y1="150" x2="640" y2="260" stroke="#0d0f11" stroke-width="6"/><rect x="624" y="260" width="32" height="30" fill="#3d4853"/><rect x="120" y="500" width="640" height="14" fill="#0a0b0c"/><g><g style="mix-blend-mode:multiply"><rect width="800" height="600" fill="url(#ht142)" mask="url(#htm142mask)"/></g></g>
<rect width="800" height="600" fill="url(#vg)"/>
<circle cx="119" cy="370" r="0.5" fill="#fff" opacity="0.05"/><circle cx="486" cy="231" r="0.9" fill="#fff" opacity="0.05"/><circle cx="35" cy="318" r="0.9" fill="#fff" opacity="0.04"/><circle cx="704" cy="441" r="0.7" fill="#fff" opacity="0.03"/><circle cx="102" cy="486" r="1.0" fill="#fff" opacity="0.05"/><circle cx="353" cy="301" r="0.6" fill="#fff" opacity="0.04"/><circle cx="116" cy="373" r="0.9" fill="#fff" opacity="0.05"/><circle cx="197" cy="55" r="0.7" fill="#fff" opacity="0.05"/><circle cx="408" cy="449" r="0.8" fill="#fff" opacity="0.04"/><circle cx="726" cy="100" r="0.5" fill="#fff" opacity="0.05"/><circle cx="505" cy="260" r="0.9" fill="#fff" opacity="0.04"/><circle cx="535" cy="533" r="1.1" fill="#fff" opacity="0.05"/><circle cx="376" cy="569" r="0.8" fill="#fff" opacity="0.05"/><circle cx="695" cy="410" r="0.7" fill="#fff" opacity="0.06"/><circle cx="480" cy="549" r="0.9" fill="#fff" opacity="0.04"/><circle cx="779" cy="317" r="0.7" fill="#fff" opacity="0.07"/><circle cx="755" cy="103" r="0.4" fill="#fff" opacity="0.06"/><circle cx="706" cy="231" r="0.6" fill="#fff" opacity="0.05"/><circle cx="752" cy="128" r="0.8" fill="#fff" opacity="0.05"/><circle cx="177" cy="249" r="0.5" fill="#fff" opacity="0.04"/><circle cx="184" cy="48" r="0.7" fill="#fff" opacity="0.02"/><circle cx="95" cy="90" r="0.7" fill="#fff" opacity="0.03"/><circle cx="583" cy="249" r="0.6" fill="#fff" opacity="0.03"/><circle cx="238" cy="446" r="0.5" fill="#fff" opacity="0.04"/><circle cx="645" cy="498" r="0.8" fill="#fff" opacity="0.06"/><circle cx="514" cy="136" r="0.4" fill="#fff" opacity="0.02"/><circle cx="632" cy="234" r="1.1" fill="#fff" opacity="0.07"/><circle cx="735" cy="282" r="0.4" fill="#fff" opacity="0.03"/><circle cx="175" cy="389" r="1.0" fill="#fff" opacity="0.07"/><circle cx="564" cy="576" r="1.0" fill="#fff" opacity="0.04"/><circle cx="669" cy="164" r="1.1" fill="#fff" opacity="0.06"/><circle cx="694" cy="36" r="0.5" fill="#fff" opacity="0.07"/><circle cx="114" cy="271" r="0.9" fill="#fff" opacity="0.04"/><circle cx="703" cy="573" r="0.7" fill="#fff" opacity="0.02"/><circle cx="732" cy="272" r="0.6" fill="#fff" opacity="0.02"/><circle cx="7" cy="350" r="0.6" fill="#fff" opacity="0.05"/><circle cx="739" cy="291" r="1.3" fill="#fff" opacity="0.02"/><circle cx="606" cy="453" r="1.3" fill="#fff" opacity="0.02"/><circle cx="405" cy="334" r="0.9" fill="#fff" opacity="0.04"/><circle cx="218" cy="542" r="1.2" fill="#fff" opacity="0.05"/><circle cx="767" cy="332" r="0.4" fill="#fff" opacity="0.05"/><circle cx="84" cy="451" r="1.0" fill="#fff" opacity="0.03"/><circle cx="122" cy="40" r="0.5" fill="#fff" opacity="0.07"/><circle cx="182" cy="530" r="0.5" fill="#fff" opacity="0.03"/><circle cx="378" cy="215" r="1.3" fill="#fff" opacity="0.03"/><circle cx="387" cy="123" r="0.5" fill="#fff" opacity="0.05"/><circle cx="271" cy="292" r="1.0" fill="#fff" opacity="0.02"/><circle cx="44" cy="413" r="1.3" fill="#fff" opacity="0.02"/><circle cx="362" cy="597" r="1.1" fill="#fff" opacity="0.07"/><circle cx="423" cy="583" r="0.4" fill="#fff" opacity="0.04"/><circle cx="678" cy="234" r="0.8" fill="#fff" opacity="0.04"/><circle cx="304" cy="488" r="1.3" fill="#fff" opacity="0.03"/><circle cx="258" cy="482" r="1.1" fill="#fff" opacity="0.06"/>
</svg>