<svg xmlns="http://www.w3.org/2000/svg" width="1600" height="600" viewBox="0 0 1600 600">
<defs>
<linearGradient id="vg" x1="0" y1="0" x2="0" y2="1">
<stop offset="0" stop-color="#000" stop-opacity="0"/>
<stop offset="0.55" stop-color="#000" stop-opacity="0"/>
<stop offset="1" stop-color="#0d0f12" stop-opacity="0.78"/>
</linearGradient>
<linearGradient id="cbg" x1="0" y1="0" x2="1" y2="1"><stop offset="0" stop-color="#22292f"/><stop offset="1" stop-color="#101316"/></linearGradient>
<pattern id="ht70" width="28" height="28" patternUnits="userSpaceOnUse"><circle cx="14.0" cy="14.0" r="7.00" fill="#000"/></pattern><linearGradient id="htm70" x1="0" y1="0" x2="0" y2="1"><stop offset="0" stop-color="#fff" stop-opacity="0"/><stop offset="1" stop-color="#fff" stop-opacity="0.16"/></linearGradient><mask id="htm70mask"><rect width="1600" height="600" fill="url(#htm70)"/></mask>
</defs>
<rect width="1600" height="600" fill="url(#cbg)"/><path d="M-200 0 L-40 0 L260 300 L-40 600 L-200 600 L100 300Z" fill="#e8a13a" opacity="0.050"/><path d="M220 0 L380 0 L680 300 L380 600 L220 600 L520 300Z" fill="#e8a13a" opacity="0.065"/><path d="M640 0 L800 0 L1100 300 L800 600 L640 600 L940 300Z" fill="#e8a13a" opacity="0.080"/><path d="M1060 0 L1220 0 L1520 300 L1220 600 L1060 600 L1360 300Z" fill="#e8a13a" opacity="0.095"/><path d="M1480 0 L1640 0 L1940 300 L1640 600 L1480 600 L1780 300Z" fill="#e8a13a" opacity="0.110"/><path d="M0 430 L1600 400 L1600 600 L0 600Z" fill="#1d2b24" opacity="0.9"/><rect x="0" y="486" width="1600" height="6" fill="#e8a13a" opacity="0.4"/><g><g style="mix-blend-mode:multiply"><rect width="1600" height="600" fill="url(#ht70)" mask="url(#htm70mask)"/></g></g>
<rect width="1600" height="600" fill="url(#vg)"/>
<circle cx="518" cy="91" r="1.0" fill="#fff" opacity="0.02"/><circle cx="857" cy="219" r="0.4" fill="#fff" opacity="0.04"/><circle cx="60" cy="260" r="0.4" fill="#fff" opacity="0.02"/><circle cx="679" cy="496" r="0.5" fill="#fff" opacity="0.03"/><circle cx="1004" cy="569" r="0.9" fill="#fff" opacity="0.04"/><circle cx="1562" cy="28" r="1.2" fill="#fff" opacity="0.03"/><circle cx="231" cy="71" r="0.6" fill="#fff" opacity="0.06"/><circle cx="289" cy="349" r="1.0" fill="#fff" opacity="0.04"/><circle cx="876" cy="38" r="0.4" fill="#fff" opacity="0.03"/><circle cx="1089" cy="257" r="0.6" fill="#fff" opacity="0.05"/><circle cx="725" cy="180" r="1.1" fill="#fff" opacity="0.05"/><circle cx="391" cy="345" r="0.8" fill="#fff" opacity="0.06"/><circle cx="1167" cy="173" r="1.3" fill="#fff" opacity="0.02"/><circle cx="669" cy="454" r="0.5" fill="#fff" opacity="0.04"/><circle cx="63" cy="401" r="1.1" fill="#fff" opacity="0.05"/><circle cx="1401" cy="188" r="1.0" fill="#fff" opacity="0.05"/><circle cx="928" cy="274" r="1.1" fill="#fff" opacity="0.07"/><circle cx="759" cy="398" r="0.4" fill="#fff" opacity="0.05"/><circle cx="1035" cy="596" r="1.1" fill="#fff" opacity="0.03"/><circle cx="617" cy="401" r="0.4" fill="#fff" opacity="0.04"/><circle cx="269" cy="70" r="0.4" fill="#fff" opacity="0.06"/><circle cx="207" cy="149" r="0.7" fill="#fff" opacity="0.06"/><circle cx="129" cy="270" r="0.9" fill="#fff" opacity="0.06"/><circle cx="1311" cy="518" r="0.6" fill="#fff" opacity="0.04"/><circle cx="574" cy="531" r="1.3" fill="#fff" opacity="0.02"/><circle cx="282" cy="139" r="0.6" fill="#fff" opacity="0.04"/><circle cx="943" cy="158" r="0.4" fill="#fff" opacity="0.04"/><circle cx="591" cy="340" r="1.3" fill="#fff" opacity="0.05"/><circle cx="825" cy="371" r="1.0" fill="#fff" opacity="0.02"/><circle cx="1439" cy="468" r="1.2" fill="#fff" opacity="0.06"/><circle cx="628" cy="239" r="0.4" fill="#fff" opacity="0.05"/><circle cx="100" cy="40" r="0.5" fill="#fff" opacity="0.02"/><circle cx="544" cy="32" r="0.4" fill="#fff" opacity="0.02"/><circle cx="162" cy="218" r="0.4" fill="#fff" opacity="0.06"/><circle cx="983" cy="89" r="0.6" fill="#fff" opacity="0.03"/><circle cx="583" cy="74" r="1.2" fill="#fff" opacity="0.07"/><circle cx="746" cy="290" r="0.4" fill="#fff" opacity="0.02"/><circle cx="548" cy="159" r="1.1" fill="#fff" opacity="0.02"/><circle cx="37" cy="571" r="0.9" fill="#fff" opacity="0.02"/><circle cx="869" cy="16" r="0.9" fill="#fff" opacity="0.07"/><circle cx="1381" cy="418" r="0.6" fill="#fff" opacity="0.04"/><circle cx="267" cy="463" r="0.9" fill="#fff" opacity="0.06"/><circle cx="527" cy="134" r="1.1" fill="#fff" opacity="0.07"/><circle cx="1364" cy="484" r="1.1" fill="#fff" opacity="0.06"/><circle cx="363" cy="311" r="0.7" fill="#fff" opacity="0.02"/><circle cx="45" cy="168" r="0.6" fill="#fff" opacity="0.05"/><circle cx="1530" cy="268" r="1.2" fill="#fff" opacity="0.07"/><circle cx="1528" cy="219" r="0.6" fill="#fff" opacity="0.03"/><circle cx="315" cy="123" r="0.9" fill="#fff" opacity="0.06"/><circle cx="1345" cy="288" r="1.0" fill="#fff" opacity="0.06"/><circle cx="136" cy="396" r="1.2" fill="#fff" opacity="0.06"/><circle cx="1200" cy="287" r="0.5" fill="#fff" opacity="0.06"/><circle cx="532" cy="480" r="1.3" fill="#fff" opacity="0.04"/><circle cx="642" cy="568" r="1.0" fill="#fff" opacity="0.02"/><circle cx="203" cy="91" r="1.2" fill="#fff" opacity="0.06"/><circle cx="234" cy="496" r="1.3" fill="#fff" opacity="0.05"/><circle cx="561" cy="329" r="0.5" fill="#fff" opacity="0.02"/><circle cx="1553" cy="390" r="0.9" fill="#fff" opacity="0.07"/><circle cx="694" cy="523" r="1.1" fill="#fff" opacity="0.03"/><circle cx="403" cy="176" r="0.6" fill="#fff" opacity="0.05"/><circle cx="415" cy="251" r="0.5" fill="#fff" opacity="0.07"/><circle cx="566" cy="275" r="0.9" fill="#fff" opacity="0.06"/><circle cx="673" cy="551" r="0.8" fill="#fff" opacity="0.04"/><circle cx="838" cy="11" r="0.8" fill="#fff" opacity="0.03"/><circle cx="6" cy="480" r="0.5" fill="#fff" opacity="0.04"/><circle cx="1160" cy="334" r="0.7" fill="#fff" opacity="0.04"/><circle cx="889" cy="471" r="0.5" fill="#fff" opacity="0.05"/><circle cx="398" cy="166" r="1.1" fill="#fff" opacity="0.04"/><circle cx="899" cy="456" r="1.2" fill="#fff" opacity="0.04"/><circle cx="980" cy="303" r="0.8" fill="#fff" opacity="0.05"/><circle cx="724" cy="320" r="0.8" fill="#fff" opacity="0.07"/><circle cx="1119" cy="526" r="1.2" fill="#fff" opacity="0.03"/><circle cx="895" cy="566" r="1.1" fill="#fff" opacity="0.02"/><circle cx="195" cy="265" r="0.4" fill="#fff" opacity="0.03"/><circle cx="117" cy="402" r="1.1" fill="#fff" opacity="0.06"/><circle cx="247" cy="430" r="1.0" fill="#fff" opacity="0.02"/><circle cx="1413" cy="581" r="0.6" fill="#fff" opacity="0.07"/><circle cx="637" cy="292" r="1.3" fill="#fff" opacity="0.06"/><circle cx="258" cy="259" r="0.8" fill="#fff" opacity="0.03"/><circle cx="313" cy="191" r="1.0" fill="#fff" opacity="0.02"/><circle cx="886" cy="264" r="0.4" fill="#fff" opacity="0.03"/><circle cx="998" cy="307" r="0.4" fill="#fff" opacity="0.07"/><circle cx="1261" cy="583" r="0.4" fill="#fff" opacity="0.03"/><circle cx="63" cy="467" r="0.6" fill="#fff" opacity="0.02"/><circle cx="676" cy="547" r="1.1" fill="#fff" opacity="0.03"/><circle cx="239" cy="552" r="0.9" fill="#fff" opacity="0.05"/><circle cx="143" cy="35" r="1.0" fill="#fff" opacity="0.04"/><circle cx="116" cy="563" r="1.0" fill="#fff" opacity="0.06"/><circle cx="134" cy="514" r="0.4" fill="#fff" opacity="0.06"/><circle cx="726" cy="203" r="0.9" fill="#fff" opacity="0.07"/><circle cx="429" cy="78" r="0.9" fill="#fff" opacity="0.03"/><circle cx="175" cy="97" r="0.4" fill="#fff" opacity="0.03"/><circle cx="499" cy="183" r="1.1" fill="#fff" opacity="0.03"/><circle cx="800" cy="107" r="0.7" fill="#fff" opacity="0.02"/><circle cx="401" cy="9" r="1.0" fill="#fff" opacity="0.05"/><circle cx="303" cy="285" r="1.2" fill="#fff" opacity="0.02"/><circle cx="1310" cy="259" r="0.8" fill="#fff" opacity="0.06"/><circle cx="629" cy="304" r="1.0" fill="#fff" opacity="0.07"/><circle cx="548" cy="499" r="1.0" fill="#fff" opacity="0.05"/><circle cx="648" cy="209" r="0.4" fill="#fff" opacity="0.02"/><circle cx="113" cy="445" r="0.6" fill="#fff" opacity="0.02"/><circle cx="135" cy="505" r="1.2" fill="#fff" opacity="0.05"/><circle cx="451" cy="145" r="0.6" fill="#fff" opacity="0.04"/><circle cx="252" cy="267" r="0.6" fill="#fff" opacity="0.07"/><circle cx="1556" cy="328" r="0.6" fill="#fff" opacity="0.07"/><circle cx="495" cy="214" r="0.4" fill="#fff" opacity="0.04"/>
</svg>