<svg xmlns="http://www.w3.org/2000/svg" width="1600" height="900" viewBox="0 0 1600 900">
<defs>
<linearGradient id="vg" x1="0" y1="0" x2="0" y2="1">
<stop offset="0" stop-color="#000" stop-opacity="0"/>
<stop offset="0.55" stop-color="#000" stop-opacity="0"/>
<stop offset="1" stop-color="#0d0f12" stop-opacity="0.78"/>
</linearGradient>
<linearGradient id="bg" x1="0" y1="0" x2="1" y2="1"><stop offset="0" stop-color="#283139"/><stop offset="1" stop-color="#13171b"/></linearGradient>
<pattern id="ht11" width="26" height="26" patternUnits="userSpaceOnUse"><circle cx="13.0" cy="13.0" r="7.00" fill="#000"/></pattern><linearGradient id="htm11" x1="0" y1="0" x2="0" y2="1"><stop offset="0" stop-color="#fff" stop-opacity="0"/><stop offset="1" stop-color="#fff" stop-opacity="0.2"/></linearGradient><mask id="htm11mask"><rect width="1600" height="900" fill="url(#htm11)"/></mask>
</defs>
<rect width="1600" height="900" fill="url(#bg)"/><circle cx="1180" cy="540" r="360" fill="#e8a13a" opacity="0.10"/><circle cx="1180" cy="540" r="220" fill="#e8a13a" opacity="0.12"/><path d="M0 600 L1600 540 L1600 900 L0 900Z" fill="#1d2b24" opacity="0.9"/><path d="M0 720 L1600 690 L1600 900 L0 900Z" fill="#1c2126"/><path d="M740 560 L860 560 L1140 900 L420 900Z" fill="#0c0e10" opacity="0.85"/><path d="M792 560 L808 560 L900 900 L690 900Z" fill="#e8a13a" opacity="0.22"/><g><g style="mix-blend-mode:multiply"><rect width="1600" height="900" fill="url(#ht11)" mask="url(#htm11mask)"/></g></g><line x1="0" y1="560" x2="1600" y2="560" stroke="#e8a13a" stroke-width="1.5" opacity="0.25"/><line x1="0" y1="690" x2="1600" y2="690" stroke="#e8a13a" stroke-width="1.5" opacity="0.25"/>
<rect width="1600" height="900" fill="url(#vg)"/>
<circle cx="215" cy="763" r="1.1" fill="#fff" opacity="0.03"/><circle cx="793" cy="405" r="1.0" fill="#fff" opacity="0.06"/><circle cx="150" cy="26" r="1.1" fill="#fff" opacity="0.04"/><circle cx="1220" cy="2" r="0.8" fill="#fff" opacity="0.05"/><circle cx="366" cy="851" r="1.2" fill="#fff" opacity="0.02"/><circle cx="41" cy="487" r="1.2" fill="#fff" opacity="0.04"/><circle cx="347" cy="380" r="0.4" fill="#fff" opacity="0.03"/><circle cx="701" cy="446" r="0.6" fill="#fff" opacity="0.03"/><circle cx="350" cy="414" r="0.6" fill="#fff" opacity="0.02"/><circle cx="1340" cy="501" r="1.0" fill="#fff" opacity="0.03"/><circle cx="1588" cy="774" r="0.5" fill="#fff" opacity="0.03"/><circle cx="1154" cy="640" r="1.2" fill="#fff" opacity="0.04"/><circle cx="1328" cy="603" r="0.6" fill="#fff" opacity="0.05"/><circle cx="1412" cy="762" r="0.8" fill="#fff" opacity="0.05"/><circle cx="55" cy="218" r="1.1" fill="#fff" opacity="0.04"/><circle cx="277" cy="494" r="1.0" fill="#fff" opacity="0.05"/><circle cx="600" cy="395" r="0.8" fill="#fff" opacity="0.06"/><circle cx="834" cy="354" r="0.8" fill="#fff" opacity="0.02"/><circle cx="70" cy="633" r="1.3" fill="#fff" opacity="0.05"/><circle cx="630" cy="153" r="0.8" fill="#fff" opacity="0.07"/><circle cx="1233" cy="486" r="1.2" fill="#fff" opacity="0.03"/><circle cx="822" cy="857" r="0.9" fill="#fff" opacity="0.04"/><circle cx="431" cy="493" r="1.3" fill="#fff" opacity="0.02"/><circle cx="1254" cy="738" r="1.2" fill="#fff" opacity="0.06"/><circle cx="1295" cy="467" r="0.9" fill="#fff" opacity="0.04"/><circle cx="90" cy="783" r="0.9" fill="#fff" opacity="0.03"/><circle cx="808" cy="436" r="0.7" fill="#fff" opacity="0.03"/><circle cx="862" cy="561" r="0.9" fill="#fff" opacity="0.04"/><circle cx="45" cy="207" r="0.5" fill="#fff" opacity="0.05"/><circle cx="1378" cy="719" r="1.1" fill="#fff" opacity="0.06"/><circle cx="408" cy="758" r="1.0" fill="#fff" opacity="0.02"/><circle cx="27" cy="13" r="1.1" fill="#fff" opacity="0.03"/><circle cx="175" cy="562" r="0.7" fill="#fff" opacity="0.02"/><circle cx="255" cy="475" r="0.5" fill="#fff" opacity="0.03"/><circle cx="1139" cy="409" r="0.7" fill="#fff" opacity="0.04"/><circle cx="38" cy="348" r="0.7" fill="#fff" opacity="0.03"/><circle cx="174" cy="810" r="0.8" fill="#fff" opacity="0.03"/><circle cx="969" cy="735" r="0.4" fill="#fff" opacity="0.02"/><circle cx="234" cy="647" r="0.5" fill="#fff" opacity="0.05"/><circle cx="1085" cy="490" r="0.6" fill="#fff" opacity="0.07"/><circle cx="1276" cy="465" r="0.6" fill="#fff" opacity="0.05"/><circle cx="632" cy="518" r="0.7" fill="#fff" opacity="0.05"/><circle cx="94" cy="269" r="1.3" fill="#fff" opacity="0.06"/><circle cx="490" cy="773" r="0.6" fill="#fff" opacity="0.07"/><circle cx="1190" cy="375" r="0.6" fill="#fff" opacity="0.02"/><circle cx="1406" cy="34" r="1.1" fill="#fff" opacity="0.07"/><circle cx="912" cy="154" r="1.2" fill="#fff" opacity="0.07"/><circle cx="1126" cy="458" r="0.7" fill="#fff" opacity="0.03"/><circle cx="329" cy="607" r="0.8" fill="#fff" opacity="0.03"/><circle cx="167" cy="599" r="0.6" fill="#fff" opacity="0.04"/><circle cx="521" cy="784" r="1.2" fill="#fff" opacity="0.02"/><circle cx="321" cy="295" r="1.3" fill="#fff" opacity="0.06"/><circle cx="543" cy="192" r="1.0" fill="#fff" opacity="0.06"/><circle cx="1491" cy="309" r="1.2" fill="#fff" opacity="0.05"/><circle cx="775" cy="887" r="0.6" fill="#fff" opacity="0.05"/><circle cx="135" cy="153" r="1.2" fill="#fff" opacity="0.03"/><circle cx="1215" cy="540" r="1.1" fill="#fff" opacity="0.04"/><circle cx="544" cy="262" r="1.2" fill="#fff" opacity="0.05"/><circle cx="1527" cy="799" r="0.5" fill="#fff" opacity="0.05"/><circle cx="167" cy="35" r="0.4" fill="#fff" opacity="0.06"/><circle cx="1261" cy="746" r="0.7" fill="#fff" opacity="0.05"/><circle cx="1251" cy="340" r="0.9" fill="#fff" opacity="0.03"/><circle cx="131" cy="240" r="1.2" fill="#fff" opacity="0.05"/><circle cx="1480" cy="412" r="0.6" fill="#fff" opacity="0.06"/><circle cx="1324" cy="11" r="1.0" fill="#fff" opacity="0.02"/><circle cx="184" cy="797" r="0.4" fill="#fff" opacity="0.03"/><circle cx="1581" cy="379" r="0.5" fill="#fff" opacity="0.02"/><circle cx="386" cy="670" r="0.4" fill="#fff" opacity="0.07"/><circle cx="605" cy="873" r="1.2" fill="#fff" opacity="0.03"/><circle cx="405" cy="429" r="0.4" fill="#fff" opacity="0.05"/><circle cx="63" cy="9" r="1.3" fill="#fff" opacity="0.03"/><circle cx="955" cy="405" r="0.6" fill="#fff" opacity="0.02"/><circle cx="1461" cy="873" r="1.3" fill="#fff" opacity="0.02"/><circle cx="344" cy="556" r="1.3" fill="#fff" opacity="0.04"/><circle cx="1101" cy="596" r="0.6" fill="#fff" opacity="0.04"/><circle cx="492" cy="222" r="0.4" fill="#fff" opacity="0.03"/><circle cx="1573" cy="403" r="1.0" fill="#fff" opacity="0.05"/><circle cx="1505" cy="351" r="0.6" fill="#fff" opacity="0.03"/><circle cx="507" cy="762" r="1.2" fill="#fff" opacity="0.03"/><circle cx="535" cy="490" r="0.9" fill="#fff" opacity="0.05"/><circle cx="392" cy="18" r="0.6" fill="#fff" opacity="0.02"/><circle cx="882" cy="64" r="0.4" fill="#fff" opacity="0.05"/><circle cx="465" cy="713" r="0.8" fill="#fff" opacity="0.06"/><circle cx="247" cy="451" r="1.1" fill="#fff" opacity="0.02"/><circle cx="1519" cy="156" r="1.1" fill="#fff" opacity="0.07"/><circle cx="1314" cy="288" r="0.5" fill="#fff" opacity="0.04"/><circle cx="1471" cy="264" r="1.2" fill="#fff" opacity="0.02"/><circle cx="1457" cy="29" r="0.7" fill="#fff" opacity="0.06"/><circle cx="1286" cy="816" r="1.1" fill="#fff" opacity="0.06"/><circle cx="1103" cy="160" r="0.8" fill="#fff" opacity="0.02"/><circle cx="1144" cy="601" r="0.6" fill="#fff" opacity="0.02"/><circle cx="1541" cy="727" r="0.9" fill="#fff" opacity="0.04"/><circle cx="1362" cy="408" r="0.7" fill="#fff" opacity="0.03"/><circle cx="413" cy="22" r="1.0" fill="#fff" opacity="0.04"/><circle cx="913" cy="56" r="0.7" fill="#fff" opacity="0.02"/><circle cx="200" cy="233" r="1.1" fill="#fff" opacity="0.04"/><circle cx="642" cy="551" r="0.6" fill="#fff" opacity="0.02"/><circle cx="846" cy="451" r="1.0" fill="#fff" opacity="0.04"/><circle cx="1098" cy="658" r="0.6" fill="#fff" opacity="0.04"/><circle cx="766" cy="203" r="0.7" fill="#fff" opacity="0.05"/><circle cx="1451" cy="826" r="0.6" fill="#fff" opacity="0.05"/><circle cx="77" cy="64" r="0.8" fill="#fff" opacity="0.06"/><circle cx="255" cy="689" r="1.2" fill="#fff" opacity="0.03"/><circle cx="1108" cy="764" r="0.7" fill="#fff" opacity="0.05"/><circle cx="1178" cy="535" r="1.2" fill="#fff" opacity="0.06"/><circle cx="1536" cy="514" r="0.5" fill="#fff" opacity="0.03"/><circle cx="348" cy="513" r="1.1" fill="#fff" opacity="0.02"/><circle cx="1091" cy="645" r="0.7" fill="#fff" opacity="0.04"/><circle cx="264" cy="657" r="0.4" fill="#fff" opacity="0.07"/><circle cx="1293" cy="566" r="0.6" fill="#fff" opacity="0.07"/><circle cx="1535" cy="125" r="1.1" fill="#fff" opacity="0.06"/><circle cx="1056" cy="630" r="0.8" fill="#fff" opacity="0.07"/><circle cx="1554" cy="344" r="1.1" fill="#fff" opacity="0.04"/><circle cx="264" cy="293" r="0.5" fill="#fff" opacity="0.06"/><circle cx="1535" cy="107" r="0.9" fill="#fff" opacity="0.04"/><circle cx="189" cy="266" r="0.6" fill="#fff" opacity="0.06"/><circle cx="6" cy="171" r="0.8" fill="#fff" opacity="0.02"/><circle cx="1004" cy="545" r="1.1" fill="#fff" opacity="0.03"/><circle cx="456" cy="488" r="0.6" fill="#fff" opacity="0.05"/><circle cx="401" cy="615" r="1.1" fill="#fff" opacity="0.06"/><circle cx="1558" cy="491" r="0.8" fill="#fff" opacity="0.06"/><circle cx="1231" cy="513" r="0.7" fill="#fff" opacity="0.03"/><circle cx="173" cy="727" r="0.5" fill="#fff" opacity="0.06"/><circle cx="872" cy="868" r="1.1" fill="#fff" opacity="0.07"/><circle cx="219" cy="450" r="0.9" fill="#fff" opacity="0.03"/><circle cx="805" cy="321" r="0.9" fill="#fff" opacity="0.02"/><circle cx="708" cy="405" r="0.6" fill="#fff" opacity="0.04"/><circle cx="1253" cy="615" r="0.8" fill="#fff" opacity="0.05"/><circle cx="604" cy="184" r="0.4" fill="#fff" opacity="0.03"/><circle cx="957" cy="793" r="1.1" fill="#fff" opacity="0.04"/><circle cx="1579" cy="415" r="1.1" fill="#fff" opacity="0.04"/><circle cx="1191" cy="889" r="0.6" fill="#fff" opacity="0.02"/><circle cx="992" cy="478" r="0.7" fill="#fff" opacity="0.02"/><circle cx="623" cy="383" r="0.7" fill="#fff" opacity="0.06"/><circle cx="935" cy="660" r="1.2" fill="#fff" opacity="0.06"/><circle cx="788" cy="671" r="1.0" fill="#fff" opacity="0.05"/><circle cx="1007" cy="366" r="0.9" fill="#fff" opacity="0.05"/><circle cx="1499" cy="704" r="1.2" fill="#fff" opacity="0.06"/><circle cx="1305" cy="545" r="0.7" fill="#fff" opacity="0.03"/><circle cx="1133" cy="787" r="0.9" fill="#fff" opacity="0.02"/><circle cx="1333" cy="436" r="0.8" fill="#fff" opacity="0.02"/><circle cx="816" cy="670" r="0.8" fill="#fff" opacity="0.03"/><circle cx="1051" cy="18" r="0.8" fill="#fff" opacity="0.07"/><circle cx="1105" cy="362" r="1.0" fill="#fff" opacity="0.05"/><circle cx="334" cy="187" r="1.2" fill="#fff" opacity="0.03"/><circle cx="120" cy="748" r="0.8" fill="#fff" opacity="0.04"/><circle cx="818" cy="663" r="0.5" fill="#fff" opacity="0.05"/><circle cx="1141" cy="734" r="0.6" fill="#fff" opacity="0.05"/><circle cx="371" cy="505" r="0.5" fill="#fff" opacity="0.06"/><circle cx="1387" cy="297" r="0.6" fill="#fff" opacity="0.07"/><circle cx="1131" cy="759" r="0.4" fill="#fff" opacity="0.06"/><circle cx="996" cy="285" r="0.8" fill="#fff" opacity="0.06"/><circle cx="1257" cy="171" r="0.9" fill="#fff" opacity="0.02"/><circle cx="1557" cy="399" r="1.2" fill="#fff" opacity="0.06"/><circle cx="970" cy="236" r="0.9" fill="#fff" opacity="0.02"/><circle cx="221" cy="644" r="0.7" fill="#fff" opacity="0.06"/><circle cx="385" cy="646" r="1.0" fill="#fff" opacity="0.03"/><circle cx="170" cy="357" r="0.8" fill="#fff" opacity="0.02"/><circle cx="299" cy="50" r="0.9" fill="#fff" opacity="0.06"/><circle cx="346" cy="31" r="1.0" fill="#fff" opacity="0.06"/>
</svg>