<svg xmlns="http://www.w3.org/2000/svg" width="800" height="600" viewBox="0 0 800 600">
<defs>
<linearGradient id="vg" x1="0" y1="0" x2="0" y2="1">
<stop offset="0" stop-color="#000" stop-opacity="0"/>
<stop offset="0.55" stop-color="#000" stop-opacity="0"/>
<stop offset="1" stop-color="#0d0f12" stop-opacity="0.78"/>
</linearGradient>
<linearGradient id="bg105" x1="0" y1="0" x2="1" y2="1"><stop offset="0" stop-color="#2b333a"/><stop offset="1" stop-color="#1c2126"/></linearGradient>
<pattern id="ht145" width="30" height="30" patternUnits="userSpaceOnUse"><circle cx="15.0" cy="15.0" r="8.00" fill="#000"/></pattern><linearGradient id="htm145" x1="0" y1="0" x2="0" y2="1"><stop offset="0" stop-color="#fff" stop-opacity="0"/><stop offset="1" stop-color="#fff" stop-opacity="0.22"/></linearGradient><mask id="htm145mask"><rect width="800" height="600" fill="url(#htm145)"/></mask>
</defs>
<rect width="800" height="600" fill="url(#bg105)"/><g><path d="M-330 0 L-252 0 L78 600 L0 600Z" fill="#000" opacity="0.121"/><path d="M-130 0 L-56 0 L274 600 L200 600Z" fill="#000" opacity="0.176"/><path d="M70 0 L121 0 L451 600 L400 600Z" fill="#000" opacity="0.159"/><path d="M270 0 L322 0 L652 600 L600 600Z" fill="#000" opacity="0.105"/><path d="M470 0 L523 0 L853 600 L800 600Z" fill="#000" opacity="0.158"/><path d="M670 0 L713 0 L1043 600 L1000 600Z" fill="#000" opacity="0.149"/><path d="M870 0 L923 0 L1253 600 L1200 600Z" fill="#000" opacity="0.105"/></g><rect x="160" y="470" width="84" height="62" rx="3" fill="#2f4438" opacity="0.95"/><rect x="160" y="470" width="84" height="62" rx="3" fill="none" stroke="#000" stroke-width="2" opacity="0.4"/><line x1="202" y1="470" x2="202" y2="532" stroke="#000" stroke-width="2" opacity="0.3"/><rect x="160" y="400" width="84" height="62" rx="3" fill="#2f4438" opacity="0.95"/><rect x="160" y="400" width="84" height="62" rx="3" fill="none" stroke="#000" stroke-width="2" opacity="0.4"/><line x1="202" y1="400" x2="202" y2="462" stroke="#000" stroke-width="2" opacity="0.3"/><rect x="160" y="330" width="84" height="62" rx="3" fill="#2f4438" opacity="0.95"/><rect x="160" y="330" width="84" height="62" rx="3" fill="none" stroke="#000" stroke-width="2" opacity="0.4"/><line x1="202" y1="330" x2="202" y2="392" stroke="#000" stroke-width="2" opacity="0.3"/><rect x="260" y="470" width="84" height="62" rx="3" fill="#3d4853" opacity="0.95"/><rect x="260" y="470" width="84" height="62" rx="3" fill="none" stroke="#000" stroke-width="2" opacity="0.4"/><line x1="302" y1="470" x2="302" y2="532" stroke="#000" stroke-width="2" opacity="0.3"/><rect x="260" y="400" width="84" height="62" rx="3" fill="#3d4853" opacity="0.95"/><rect x="260" y="400" width="84" height="62" rx="3" fill="none" stroke="#000" stroke-width="2" opacity="0.4"/><line x1="302" y1="400" x2="302" y2="462" stroke="#000" stroke-width="2" opacity="0.3"/><rect x="360" y="470" width="84" height="62" rx="3" fill="#0d0f11" opacity="0.95"/><rect x="360" y="470" width="84" height="62" rx="3" fill="none" stroke="#000" stroke-width="2" opacity="0.4"/><line x1="402" y1="470" x2="402" y2="532" stroke="#000" stroke-width="2" opacity="0.3"/><rect x="360" y="400" width="84" height="62" rx="3" fill="#0d0f11" opacity="0.95"/><rect x="360" y="400" width="84" height="62" rx="3" fill="none" stroke="#000" stroke-width="2" opacity="0.4"/><line x1="402" y1="400" x2="402" y2="462" stroke="#000" stroke-width="2" opacity="0.3"/><rect x="360" y="330" width="84" height="62" rx="3" fill="#0d0f11" opacity="0.95"/><rect x="360" y="330" width="84" height="62" rx="3" fill="none" stroke="#000" stroke-width="2" opacity="0.4"/><line x1="402" y1="330" x2="402" y2="392" stroke="#000" stroke-width="2" opacity="0.3"/><rect x="460" y="470" width="84" height="62" rx="3" fill="#2f4438" opacity="0.95"/><rect x="460" y="470" width="84" height="62" rx="3" fill="none" stroke="#000" stroke-width="2" opacity="0.4"/><line x1="502" y1="470" x2="502" y2="532" stroke="#000" stroke-width="2" opacity="0.3"/><rect x="460" y="400" width="84" height="62" rx="3" fill="#2f4438" opacity="0.95"/><rect x="460" y="400" width="84" height="62" rx="3" fill="none" stroke="#000" stroke-width="2" opacity="0.4"/><line x1="502" y1="400" x2="502" y2="462" stroke="#000" stroke-width="2" opacity="0.3"/><rect x="460" y="330" width="84" height="62" rx="3" fill="#2f4438" opacity="0.95"/><rect x="460" y="330" width="84" height="62" rx="3" fill="none" stroke="#000" stroke-width="2" opacity="0.4"/><line x1="502" y1="330" x2="502" y2="392" stroke="#000" stroke-width="2" opacity="0.3"/><rect x="460" y="260" width="84" height="62" rx="3" fill="#2f4438" opacity="0.95"/><rect x="460" y="260" width="84" height="62" rx="3" fill="none" stroke="#000" stroke-width="2" opacity="0.4"/><line x1="502" y1="260" x2="502" y2="322" stroke="#000" stroke-width="2" opacity="0.3"/><rect x="560" y="470" width="84" height="62" rx="3" fill="#3d4853" opacity="0.95"/><rect x="560" y="470" width="84" height="62" rx="3" fill="none" stroke="#000" stroke-width="2" opacity="0.4"/><line x1="602" y1="470" x2="602" y2="532" stroke="#000" stroke-width="2" opacity="0.3"/><rect x="560" y="400" width="84" height="62" rx="3" fill="#3d4853" opacity="0.95"/><rect x="560" y="400" width="84" height="62" rx="3" fill="none" stroke="#000" stroke-width="2" opacity="0.4"/><line x1="602" y1="400" x2="602" y2="462" stroke="#000" stroke-width="2" opacity="0.3"/><path d="M120 180 Q 400 90 680 200" fill="none" stroke="#e8a13a" stroke-width="3" opacity="0.55" stroke-dasharray="2 10" stroke-linecap="round"/><circle cx="120" cy="180" r="9" fill="#e8a13a" opacity="0.8"/><circle cx="400" cy="128" r="9" fill="#e8a13a" opacity="0.8"/><circle cx="680" cy="200" r="9" fill="#e8a13a" opacity="0.8"/><rect x="120" y="498" width="560" height="12" fill="#0a0b0c"/><g><g style="mix-blend-mode:multiply"><rect width="800" height="600" fill="url(#ht145)" mask="url(#htm145mask)"/></g></g>
<rect width="800" height="600" fill="url(#vg)"/>
<circle cx="702" cy="209" r="1.1" fill="#fff" opacity="0.07"/><circle cx="250" cy="461" r="0.7" fill="#fff" opacity="0.02"/><circle cx="279" cy="451" r="0.5" fill="#fff" opacity="0.05"/><circle cx="281" cy="101" r="0.8" fill="#fff" opacity="0.04"/><circle cx="368" cy="529" r="1.2" fill="#fff" opacity="0.03"/><circle cx="790" cy="367" r="1.3" fill="#fff" opacity="0.06"/><circle cx="421" cy="151" r="1.2" fill="#fff" opacity="0.07"/><circle cx="500" cy="70" r="1.1" fill="#fff" opacity="0.06"/><circle cx="704" cy="586" r="1.3" fill="#fff" opacity="0.06"/><circle cx="314" cy="319" r="0.8" fill="#fff" opacity="0.06"/><circle cx="501" cy="496" r="0.8" fill="#fff" opacity="0.05"/><circle cx="771" cy="475" r="1.2" fill="#fff" opacity="0.05"/><circle cx="99" cy="251" r="0.6" fill="#fff" opacity="0.03"/><circle cx="102" cy="66" r="0.8" fill="#fff" opacity="0.06"/><circle cx="694" cy="581" r="0.9" fill="#fff" opacity="0.02"/><circle cx="153" cy="34" r="1.2" fill="#fff" opacity="0.03"/><circle cx="579" cy="271" r="0.9" fill="#fff" opacity="0.06"/><circle cx="526" cy="45" r="1.0" fill="#fff" opacity="0.03"/><circle cx="781" cy="161" r="0.6" fill="#fff" opacity="0.07"/><circle cx="331" cy="50" r="1.1" fill="#fff" opacity="0.07"/><circle cx="394" cy="100" r="1.2" fill="#fff" opacity="0.03"/><circle cx="197" cy="26" r="1.2" fill="#fff" opacity="0.03"/><circle cx="96" cy="218" r="1.0" fill="#fff" opacity="0.07"/><circle cx="169" cy="371" r="0.6" fill="#fff" opacity="0.06"/><circle cx="390" cy="410" r="1.1" fill="#fff" opacity="0.04"/><circle cx="377" cy="6" r="0.5" fill="#fff" opacity="0.05"/><circle cx="609" cy="347" r="0.4" fill="#fff" opacity="0.06"/><circle cx="679" cy="514" r="1.1" fill="#fff" opacity="0.05"/><circle cx="280" cy="217" r="0.5" fill="#fff" opacity="0.05"/><circle cx="271" cy="486" r="0.6" fill="#fff" opacity="0.03"/><circle cx="69" cy="168" r="1.1" fill="#fff" opacity="0.06"/><circle cx="734" cy="21" r="1.0" fill="#fff" opacity="0.05"/><circle cx="280" cy="564" r="1.0" fill="#fff" opacity="0.03"/><circle cx="665" cy="266" r="0.8" fill="#fff" opacity="0.04"/><circle cx="380" cy="15" r="1.1" fill="#fff" opacity="0.03"/><circle cx="360" cy="106" r="0.9" fill="#fff" opacity="0.02"/><circle cx="24" cy="126" r="1.2" fill="#fff" opacity="0.05"/><circle cx="578" cy="55" r="0.8" fill="#fff" opacity="0.06"/><circle cx="596" cy="270" r="0.4" fill="#fff" opacity="0.04"/><circle cx="759" cy="534" r="0.9" fill="#fff" opacity="0.03"/><circle cx="481" cy="345" r="0.8" fill="#fff" opacity="0.06"/><circle cx="451" cy="58" r="1.0" fill="#fff" opacity="0.05"/><circle cx="81" cy="315" r="1.3" fill="#fff" opacity="0.05"/><circle cx="539" cy="287" r="0.8" fill="#fff" opacity="0.07"/><circle cx="225" cy="278" r="0.4" fill="#fff" opacity="0.04"/><circle cx="530" cy="415" r="1.3" fill="#fff" opacity="0.03"/><circle cx="167" cy="215" r="0.7" fill="#fff" opacity="0.07"/><circle cx="167" cy="283" r="1.3" fill="#fff" opacity="0.04"/><circle cx="367" cy="251" r="0.7" fill="#fff" opacity="0.03"/><circle cx="670" cy="9" r="0.4" fill="#fff" opacity="0.06"/><circle cx="579" cy="255" r="0.8" fill="#fff" opacity="0.04"/><circle cx="205" cy="260" r="0.7" fill="#fff" opacity="0.05"/><circle cx="269" cy="353" r="0.4" fill="#fff" opacity="0.07"/>
</svg>