<svg xmlns="http://www.w3.org/2000/svg" width="800" height="600" viewBox="0 0 800 600">
<defs>
<linearGradient id="vg" x1="0" y1="0" x2="0" y2="1">
<stop offset="0" stop-color="#000" stop-opacity="0"/>
<stop offset="0.55" stop-color="#000" stop-opacity="0"/>
<stop offset="1" stop-color="#0d0f12" stop-opacity="0.78"/>
</linearGradient>
<linearGradient id="bg104" x1="0" y1="0" x2="1" y2="1"><stop offset="0" stop-color="#2b333a"/><stop offset="1" stop-color="#1c2126"/></linearGradient>
<pattern id="ht144" width="30" height="30" patternUnits="userSpaceOnUse"><circle cx="15.0" cy="15.0" r="8.00" fill="#000"/></pattern><linearGradient id="htm144" x1="0" y1="0" x2="0" y2="1"><stop offset="0" stop-color="#fff" stop-opacity="0"/><stop offset="1" stop-color="#fff" stop-opacity="0.22"/></linearGradient><mask id="htm144mask"><rect width="800" height="600" fill="url(#htm144)"/></mask>
</defs>
<rect width="800" height="600" fill="url(#bg104)"/><g><path d="M-330 0 L-248 0 L82 600 L0 600Z" fill="#000" opacity="0.168"/><path d="M-130 0 L-59 0 L271 600 L200 600Z" fill="#000" opacity="0.110"/><path d="M70 0 L122 0 L452 600 L400 600Z" fill="#000" opacity="0.154"/><path d="M270 0 L345 0 L675 600 L600 600Z" fill="#000" opacity="0.092"/><path d="M470 0 L514 0 L844 600 L800 600Z" fill="#000" opacity="0.171"/><path d="M670 0 L712 0 L1042 600 L1000 600Z" fill="#000" opacity="0.149"/><path d="M870 0 L922 0 L1252 600 L1200 600Z" fill="#000" opacity="0.148"/></g><rect x="140" y="200" width="520" height="300" fill="#0d0f11" opacity="0.9"/><rect x="140" y="200" width="520" height="60" fill="#e8a13a" opacity="0.55"/><rect x="170" y="300" width="200" height="200" fill="#2b333a"/><rect x="170" y="300" width="200" height="200" fill="none" stroke="#e8a13a" stroke-width="2" opacity="0.4"/><rect x="420" y="320" width="44" height="180" fill="#2f4438"/><rect x="490" y="320" width="44" height="180" fill="#2f4438"/><rect x="560" y="320" width="44" height="180" fill="#2f4438"/><path d="M250 300 q -18 -40 0 -80 q 18 -40 0 -80" fill="none" stroke="#e8a13a" stroke-width="3" opacity="0.3"/><path d="M320 300 q -18 -40 0 -80 q 18 -40 0 -80" fill="none" stroke="#e8a13a" stroke-width="3" opacity="0.3"/><path d="M390 300 q -18 -40 0 -80 q 18 -40 0 -80" fill="none" stroke="#e8a13a" stroke-width="3" opacity="0.3"/><rect x="140" y="500" width="520" height="12" fill="#0a0b0c"/><g><g style="mix-blend-mode:multiply"><rect width="800" height="600" fill="url(#ht144)" mask="url(#htm144mask)"/></g></g>
<rect width="800" height="600" fill="url(#vg)"/>
<circle cx="768" cy="523" r="1.0" fill="#fff" opacity="0.03"/><circle cx="265" cy="428" r="1.1" fill="#fff" opacity="0.02"/><circle cx="133" cy="537" r="0.5" fill="#fff" opacity="0.05"/><circle cx="264" cy="387" r="1.2" fill="#fff" opacity="0.05"/><circle cx="313" cy="193" r="0.9" fill="#fff" opacity="0.05"/><circle cx="328" cy="280" r="0.9" fill="#fff" opacity="0.03"/><circle cx="144" cy="341" r="0.4" fill="#fff" opacity="0.05"/><circle cx="641" cy="497" r="0.6" fill="#fff" opacity="0.04"/><circle cx="739" cy="210" r="1.3" fill="#fff" opacity="0.03"/><circle cx="673" cy="25" r="1.0" fill="#fff" opacity="0.06"/><circle cx="438" cy="380" r="1.2" fill="#fff" opacity="0.07"/><circle cx="143" cy="314" r="0.4" fill="#fff" opacity="0.04"/><circle cx="116" cy="96" r="0.9" fill="#fff" opacity="0.02"/><circle cx="123" cy="6" r="1.1" fill="#fff" opacity="0.03"/><circle cx="58" cy="373" r="1.0" fill="#fff" opacity="0.05"/><circle cx="438" cy="321" r="1.0" fill="#fff" opacity="0.03"/><circle cx="674" cy="416" r="1.2" fill="#fff" opacity="0.06"/><circle cx="672" cy="311" r="0.8" fill="#fff" opacity="0.06"/><circle cx="463" cy="17" r="1.2" fill="#fff" opacity="0.03"/><circle cx="388" cy="271" r="0.4" fill="#fff" opacity="0.05"/><circle cx="472" cy="488" r="0.9" fill="#fff" opacity="0.03"/><circle cx="452" cy="576" r="1.0" fill="#fff" opacity="0.06"/><circle cx="9" cy="414" r="0.6" fill="#fff" opacity="0.02"/><circle cx="265" cy="107" r="0.4" fill="#fff" opacity="0.03"/><circle cx="184" cy="150" r="1.1" fill="#fff" opacity="0.02"/><circle cx="160" cy="33" r="0.8" fill="#fff" opacity="0.03"/><circle cx="425" cy="143" r="0.5" fill="#fff" opacity="0.04"/><circle cx="57" cy="531" r="0.9" fill="#fff" opacity="0.04"/><circle cx="440" cy="568" r="0.8" fill="#fff" opacity="0.04"/><circle cx="173" cy="228" r="1.1" fill="#fff" opacity="0.05"/><circle cx="221" cy="539" r="0.5" fill="#fff" opacity="0.03"/><circle cx="621" cy="549" r="0.8" fill="#fff" opacity="0.02"/><circle cx="449" cy="256" r="0.4" fill="#fff" opacity="0.03"/><circle cx="706" cy="22" r="0.5" fill="#fff" opacity="0.02"/><circle cx="638" cy="184" r="1.0" fill="#fff" opacity="0.05"/><circle cx="10" cy="263" r="0.5" fill="#fff" opacity="0.06"/><circle cx="391" cy="221" r="1.1" fill="#fff" opacity="0.06"/><circle cx="55" cy="57" r="0.7" fill="#fff" opacity="0.03"/><circle cx="353" cy="256" r="1.3" fill="#fff" opacity="0.05"/><circle cx="769" cy="371" r="0.6" fill="#fff" opacity="0.05"/><circle cx="128" cy="350" r="0.5" fill="#fff" opacity="0.07"/><circle cx="243" cy="537" r="0.6" fill="#fff" opacity="0.03"/><circle cx="197" cy="494" r="1.1" fill="#fff" opacity="0.06"/><circle cx="460" cy="87" r="0.6" fill="#fff" opacity="0.02"/><circle cx="744" cy="77" r="1.0" fill="#fff" opacity="0.02"/><circle cx="228" cy="362" r="0.5" fill="#fff" opacity="0.02"/><circle cx="717" cy="172" r="0.4" fill="#fff" opacity="0.05"/><circle cx="791" cy="327" r="0.4" fill="#fff" opacity="0.04"/><circle cx="487" cy="147" r="0.7" fill="#fff" opacity="0.06"/><circle cx="526" cy="499" r="1.3" fill="#fff" opacity="0.04"/><circle cx="785" cy="71" r="0.8" fill="#fff" opacity="0.05"/><circle cx="743" cy="282" r="0.8" fill="#fff" opacity="0.06"/><circle cx="376" cy="35" r="0.8" fill="#fff" opacity="0.03"/>
</svg>