<svg xmlns="http://www.w3.org/2000/svg" width="800" height="600" viewBox="0 0 800 600">
<defs>
<linearGradient id="vg" x1="0" y1="0" x2="0" y2="1">
<stop offset="0" stop-color="#000" stop-opacity="0"/>
<stop offset="0.55" stop-color="#000" stop-opacity="0"/>
<stop offset="1" stop-color="#0d0f12" stop-opacity="0.78"/>
</linearGradient>
<linearGradient id="bg106" x1="0" y1="0" x2="1" y2="1"><stop offset="0" stop-color="#2b333a"/><stop offset="1" stop-color="#1c2126"/></linearGradient>
<pattern id="ht146" width="30" height="30" patternUnits="userSpaceOnUse"><circle cx="15.0" cy="15.0" r="8.00" fill="#000"/></pattern><linearGradient id="htm146" x1="0" y1="0" x2="0" y2="1"><stop offset="0" stop-color="#fff" stop-opacity="0"/><stop offset="1" stop-color="#fff" stop-opacity="0.22"/></linearGradient><mask id="htm146mask"><rect width="800" height="600" fill="url(#htm146)"/></mask>
</defs>
<rect width="800" height="600" fill="url(#bg106)"/><g><path d="M-330 0 L-260 0 L70 600 L0 600Z" fill="#000" opacity="0.171"/><path d="M-130 0 L-93 0 L237 600 L200 600Z" fill="#000" opacity="0.175"/><path d="M70 0 L145 0 L475 600 L400 600Z" fill="#000" opacity="0.095"/><path d="M270 0 L345 0 L675 600 L600 600Z" fill="#000" opacity="0.162"/><path d="M470 0 L515 0 L845 600 L800 600Z" fill="#000" opacity="0.177"/><path d="M670 0 L723 0 L1053 600 L1000 600Z" fill="#000" opacity="0.131"/><path d="M870 0 L937 0 L1267 600 L1200 600Z" fill="#000" opacity="0.152"/></g><circle cx="170" cy="200" r="7" fill="#000" opacity="0.4"/><circle cx="250" cy="200" r="7" fill="#000" opacity="0.4"/><circle cx="330" cy="200" r="7" fill="#000" opacity="0.4"/><circle cx="410" cy="200" r="7" fill="#000" opacity="0.4"/><circle cx="490" cy="200" r="7" fill="#000" opacity="0.4"/><circle cx="570" cy="200" r="7" fill="#000" opacity="0.4"/><circle cx="170" cy="290" r="7" fill="#000" opacity="0.4"/><circle cx="250" cy="290" r="7" fill="#000" opacity="0.4"/><circle cx="330" cy="290" r="7" fill="#000" opacity="0.4"/><circle cx="410" cy="290" r="7" fill="#000" opacity="0.4"/><circle cx="490" cy="290" r="7" fill="#000" opacity="0.4"/><circle cx="570" cy="290" r="7" fill="#000" opacity="0.4"/><circle cx="170" cy="380" r="7" fill="#000" opacity="0.4"/><circle cx="250" cy="380" r="7" fill="#000" opacity="0.4"/><circle cx="330" cy="380" r="7" fill="#000" opacity="0.4"/><circle cx="410" cy="380" r="7" fill="#000" opacity="0.4"/><circle cx="490" cy="380" r="7" fill="#000" opacity="0.4"/><circle cx="570" cy="380" r="7" fill="#000" opacity="0.4"/><g transform="rotate(38 400 300)"><rect x="180" y="285" width="440" height="34" rx="17" fill="#0d0f11" opacity="0.92"/><circle cx="180" cy="302" r="34" fill="none" stroke="#0d0f11" stroke-width="20"/></g><g transform="rotate(-38 400 300)"><rect x="180" y="285" width="420" height="30" rx="6" fill="#e8a13a" opacity="0.85"/><rect x="560" y="262" width="70" height="76" rx="6" fill="#e8a13a" opacity="0.85"/></g><circle cx="400" cy="300" r="26" fill="#3d4853"/><rect x="120" y="498" width="560" height="12" fill="#0a0b0c"/><g><g style="mix-blend-mode:multiply"><rect width="800" height="600" fill="url(#ht146)" mask="url(#htm146mask)"/></g></g>
<rect width="800" height="600" fill="url(#vg)"/>
<circle cx="569" cy="541" r="0.4" fill="#fff" opacity="0.07"/><circle cx="657" cy="34" r="1.1" fill="#fff" opacity="0.06"/><circle cx="150" cy="583" r="0.7" fill="#fff" opacity="0.04"/><circle cx="523" cy="414" r="1.1" fill="#fff" opacity="0.03"/><circle cx="387" cy="82" r="0.6" fill="#fff" opacity="0.04"/><circle cx="60" cy="209" r="1.1" fill="#fff" opacity="0.02"/><circle cx="347" cy="22" r="1.1" fill="#fff" opacity="0.02"/><circle cx="145" cy="447" r="0.8" fill="#fff" opacity="0.05"/><circle cx="487" cy="298" r="0.8" fill="#fff" opacity="0.02"/><circle cx="114" cy="122" r="0.6" fill="#fff" opacity="0.03"/><circle cx="713" cy="128" r="0.5" fill="#fff" opacity="0.03"/><circle cx="106" cy="497" r="1.3" fill="#fff" opacity="0.06"/><circle cx="763" cy="330" r="0.8" fill="#fff" opacity="0.04"/><circle cx="522" cy="144" r="0.8" fill="#fff" opacity="0.04"/><circle cx="535" cy="523" r="1.0" fill="#fff" opacity="0.02"/><circle cx="475" cy="439" r="0.9" fill="#fff" opacity="0.02"/><circle cx="75" cy="323" r="1.0" fill="#fff" opacity="0.04"/><circle cx="583" cy="330" r="1.1" fill="#fff" opacity="0.03"/><circle cx="665" cy="449" r="0.5" fill="#fff" opacity="0.03"/><circle cx="235" cy="472" r="1.0" fill="#fff" opacity="0.02"/><circle cx="588" cy="184" r="1.2" fill="#fff" opacity="0.03"/><circle cx="82" cy="199" r="0.8" fill="#fff" opacity="0.04"/><circle cx="430" cy="65" r="0.6" fill="#fff" opacity="0.02"/><circle cx="790" cy="292" r="0.6" fill="#fff" opacity="0.02"/><circle cx="484" cy="3" r="0.5" fill="#fff" opacity="0.05"/><circle cx="422" cy="425" r="1.2" fill="#fff" opacity="0.03"/><circle cx="610" cy="483" r="1.1" fill="#fff" opacity="0.04"/><circle cx="611" cy="20" r="0.5" fill="#fff" opacity="0.05"/><circle cx="444" cy="366" r="0.7" fill="#fff" opacity="0.02"/><circle cx="256" cy="120" r="1.0" fill="#fff" opacity="0.03"/><circle cx="608" cy="322" r="0.7" fill="#fff" opacity="0.05"/><circle cx="711" cy="199" r="0.4" fill="#fff" opacity="0.06"/><circle cx="232" cy="535" r="0.8" fill="#fff" opacity="0.04"/><circle cx="674" cy="68" r="1.2" fill="#fff" opacity="0.03"/><circle cx="621" cy="574" r="1.1" fill="#fff" opacity="0.03"/><circle cx="774" cy="317" r="0.6" fill="#fff" opacity="0.04"/><circle cx="68" cy="378" r="0.8" fill="#fff" opacity="0.05"/><circle cx="708" cy="270" r="0.4" fill="#fff" opacity="0.05"/><circle cx="70" cy="359" r="0.9" fill="#fff" opacity="0.04"/><circle cx="528" cy="53" r="0.7" fill="#fff" opacity="0.03"/><circle cx="172" cy="72" r="0.6" fill="#fff" opacity="0.06"/><circle cx="782" cy="370" r="1.1" fill="#fff" opacity="0.02"/><circle cx="271" cy="433" r="1.2" fill="#fff" opacity="0.02"/><circle cx="793" cy="583" r="0.4" fill="#fff" opacity="0.04"/><circle cx="731" cy="206" r="0.5" fill="#fff" opacity="0.05"/><circle cx="500" cy="463" r="0.6" fill="#fff" opacity="0.04"/><circle cx="155" cy="563" r="1.2" fill="#fff" opacity="0.07"/><circle cx="109" cy="107" r="1.1" fill="#fff" opacity="0.04"/><circle cx="679" cy="387" r="0.4" fill="#fff" opacity="0.02"/><circle cx="582" cy="164" r="0.7" fill="#fff" opacity="0.05"/><circle cx="43" cy="60" r="0.8" fill="#fff" opacity="0.02"/><circle cx="276" cy="233" r="0.4" fill="#fff" opacity="0.02"/><circle cx="610" cy="411" r="0.8" fill="#fff" opacity="0.04"/>
</svg>