<svg xmlns="http://www.w3.org/2000/svg" width="800" height="600" viewBox="0 0 800 600">
<defs>
<linearGradient id="vg" x1="0" y1="0" x2="0" y2="1">
<stop offset="0" stop-color="#000" stop-opacity="0"/>
<stop offset="0.55" stop-color="#000" stop-opacity="0"/>
<stop offset="1" stop-color="#0d0f12" stop-opacity="0.78"/>
</linearGradient>
<linearGradient id="bg101" x1="0" y1="0" x2="1" y2="1"><stop offset="0" stop-color="#2b333a"/><stop offset="1" stop-color="#1c2126"/></linearGradient>
<pattern id="ht141" width="30" height="30" patternUnits="userSpaceOnUse"><circle cx="15.0" cy="15.0" r="8.00" fill="#000"/></pattern><linearGradient id="htm141" x1="0" y1="0" x2="0" y2="1"><stop offset="0" stop-color="#fff" stop-opacity="0"/><stop offset="1" stop-color="#fff" stop-opacity="0.22"/></linearGradient><mask id="htm141mask"><rect width="800" height="600" fill="url(#htm141)"/></mask>
</defs>
<rect width="800" height="600" fill="url(#bg101)"/><g><path d="M-330 0 L-266 0 L64 600 L0 600Z" fill="#000" opacity="0.108"/><path d="M-130 0 L-48 0 L282 600 L200 600Z" fill="#000" opacity="0.173"/><path d="M70 0 L128 0 L458 600 L400 600Z" fill="#000" opacity="0.150"/><path d="M270 0 L316 0 L646 600 L600 600Z" fill="#000" opacity="0.110"/><path d="M470 0 L520 0 L850 600 L800 600Z" fill="#000" opacity="0.152"/><path d="M670 0 L716 0 L1046 600 L1000 600Z" fill="#000" opacity="0.177"/><path d="M870 0 L909 0 L1239 600 L1200 600Z" fill="#000" opacity="0.107"/></g><rect x="120" y="300" width="520" height="150" rx="6" fill="#0d0f11" opacity="0.92"/><rect x="120" y="300" width="520" height="150" rx="6" fill="none" stroke="#e8a13a" stroke-width="2" opacity="0.4"/><line x1="150" y1="300" x2="150" y2="450" stroke="#000" stroke-width="6" opacity="0.5"/><line x1="250" y1="300" x2="250" y2="450" stroke="#000" stroke-width="6" opacity="0.5"/><line x1="350" y1="300" x2="350" y2="450" stroke="#000" stroke-width="6" opacity="0.5"/><line x1="450" y1="300" x2="450" y2="450" stroke="#000" stroke-width="6" opacity="0.5"/><line x1="550" y1="300" x2="550" y2="450" stroke="#000" stroke-width="6" opacity="0.5"/><rect x="560" y="250" width="120" height="120" rx="6" fill="#2f4438"/><circle cx="210" cy="470" r="34" fill="#0a0b0c"/><circle cx="210" cy="470" r="14" fill="#3d4853"/><circle cx="330" cy="470" r="34" fill="#0a0b0c"/><circle cx="330" cy="470" r="14" fill="#3d4853"/><circle cx="600" cy="470" r="34" fill="#0a0b0c"/><circle cx="600" cy="470" r="14" fill="#3d4853"/><rect x="120" y="496" width="560" height="10" fill="#e8a13a" opacity="0.5"/><g><g style="mix-blend-mode:multiply"><rect width="800" height="600" fill="url(#ht141)" mask="url(#htm141mask)"/></g></g>
<rect width="800" height="600" fill="url(#vg)"/>
<circle cx="465" cy="117" r="1.3" fill="#fff" opacity="0.07"/><circle cx="374" cy="398" r="0.6" fill="#fff" opacity="0.03"/><circle cx="231" cy="415" r="0.6" fill="#fff" opacity="0.07"/><circle cx="56" cy="116" r="0.4" fill="#fff" opacity="0.06"/><circle cx="293" cy="283" r="0.7" fill="#fff" opacity="0.05"/><circle cx="323" cy="125" r="0.8" fill="#fff" opacity="0.03"/><circle cx="89" cy="494" r="1.0" fill="#fff" opacity="0.05"/><circle cx="706" cy="237" r="0.7" fill="#fff" opacity="0.04"/><circle cx="324" cy="401" r="0.4" fill="#fff" opacity="0.04"/><circle cx="428" cy="207" r="0.4" fill="#fff" opacity="0.05"/><circle cx="8" cy="339" r="0.5" fill="#fff" opacity="0.02"/><circle cx="145" cy="39" r="0.5" fill="#fff" opacity="0.05"/><circle cx="583" cy="218" r="1.0" fill="#fff" opacity="0.04"/><circle cx="399" cy="526" r="0.6" fill="#fff" opacity="0.06"/><circle cx="553" cy="410" r="0.4" fill="#fff" opacity="0.02"/><circle cx="26" cy="207" r="1.2" fill="#fff" opacity="0.06"/><circle cx="671" cy="71" r="1.0" fill="#fff" opacity="0.06"/><circle cx="647" cy="475" r="0.5" fill="#fff" opacity="0.02"/><circle cx="634" cy="443" r="1.2" fill="#fff" opacity="0.04"/><circle cx="712" cy="84" r="1.3" fill="#fff" opacity="0.06"/><circle cx="270" cy="41" r="0.9" fill="#fff" opacity="0.05"/><circle cx="280" cy="34" r="0.6" fill="#fff" opacity="0.06"/><circle cx="73" cy="562" r="0.6" fill="#fff" opacity="0.03"/><circle cx="90" cy="589" r="1.2" fill="#fff" opacity="0.03"/><circle cx="76" cy="392" r="1.2" fill="#fff" opacity="0.02"/><circle cx="506" cy="514" r="0.8" fill="#fff" opacity="0.05"/><circle cx="643" cy="143" r="0.6" fill="#fff" opacity="0.05"/><circle cx="442" cy="321" r="0.7" fill="#fff" opacity="0.07"/><circle cx="231" cy="407" r="1.2" fill="#fff" opacity="0.04"/><circle cx="43" cy="132" r="0.4" fill="#fff" opacity="0.02"/><circle cx="96" cy="205" r="0.7" fill="#fff" opacity="0.04"/><circle cx="532" cy="406" r="1.0" fill="#fff" opacity="0.04"/><circle cx="530" cy="330" r="0.5" fill="#fff" opacity="0.05"/><circle cx="255" cy="406" r="1.0" fill="#fff" opacity="0.03"/><circle cx="348" cy="273" r="0.6" fill="#fff" opacity="0.02"/><circle cx="40" cy="596" r="1.1" fill="#fff" opacity="0.04"/><circle cx="533" cy="161" r="1.0" fill="#fff" opacity="0.07"/><circle cx="619" cy="279" r="1.3" fill="#fff" opacity="0.07"/><circle cx="47" cy="247" r="0.8" fill="#fff" opacity="0.03"/><circle cx="493" cy="86" r="1.1" fill="#fff" opacity="0.06"/><circle cx="49" cy="415" r="0.6" fill="#fff" opacity="0.05"/><circle cx="553" cy="586" r="1.1" fill="#fff" opacity="0.03"/><circle cx="584" cy="88" r="1.0" fill="#fff" opacity="0.04"/><circle cx="212" cy="143" r="0.6" fill="#fff" opacity="0.06"/><circle cx="77" cy="139" r="0.5" fill="#fff" opacity="0.02"/><circle cx="584" cy="352" r="1.0" fill="#fff" opacity="0.06"/><circle cx="359" cy="23" r="0.5" fill="#fff" opacity="0.04"/><circle cx="572" cy="551" r="0.8" fill="#fff" opacity="0.03"/><circle cx="474" cy="561" r="0.7" fill="#fff" opacity="0.07"/><circle cx="723" cy="346" r="0.8" fill="#fff" opacity="0.02"/><circle cx="88" cy="25" r="0.9" fill="#fff" opacity="0.05"/><circle cx="795" cy="361" r="1.3" fill="#fff" opacity="0.04"/><circle cx="107" cy="36" r="0.6" fill="#fff" opacity="0.04"/>
</svg>